<svg xmlns="http://www.w3.org/2000/svg" viewBox="0 0 48.18 54.26"><defs><style>.cls-1{fill:#fff;}.cls-2,.cls-3,.cls-4{fill:none;stroke-width:3px;}.cls-2,.cls-3{stroke:#6f3b96;}.cls-2{stroke-linecap:round;stroke-linejoin:round;}.cls-3,.cls-4{stroke-miterlimit:10;}.cls-4{stroke:#050606;}</style></defs><g id="Layer_2" data-name="Layer 2"><g id="Layer_6" data-name="Layer 6"><rect class="cls-1" x="1.5" y="1.5" width="37.94" height="51.26" rx="6.47"/><polyline class="cls-2" points="27.79 38.65 33.44 44.29 46.68 30.88"/><line class="cls-3" x1="10.5" y1="13.76" x2="13.32" y2="13.76"/><line class="cls-3" x1="10.5" y1="21.09" x2="13.32" y2="21.09"/><line class="cls-3" x1="10.5" y1="28.41" x2="13.32" y2="28.41"/><line class="cls-4" x1="17.65" y1="21.09" x2="29.12" y2="21.09"/><line class="cls-4" x1="17.65" y1="13.76" x2="29.12" y2="13.76"/><line class="cls-4" x1="17.65" y1="27.97" x2="29.12" y2="27.97"/><path class="cls-4" d="M26.47,52.76H8A6.5,6.5,0,0,1,1.5,46.28V8A6.51,6.51,0,0,1,8,1.5H33A6.51,6.51,0,0,1,39.44,8V24.88"/></g></g></svg>