<svg xmlns="http://www.w3.org/2000/svg" viewBox="0 0 28.72 51.59"><defs><style>.cls-1,.cls-5{fill:#fff;}.cls-1,.cls-4,.cls-5{stroke:#050606;}.cls-1{stroke-miterlimit:10;}.cls-1,.cls-2{stroke-width:3px;}.cls-2,.cls-4{fill:none;}.cls-2{stroke:#6f3b96;}.cls-2,.cls-4,.cls-5{stroke-linecap:round;stroke-linejoin:round;}.cls-3{fill:#6f3b96;}.cls-4{stroke-width:2px;}</style></defs><g id="Layer_2" data-name="Layer 2"><g id="Layer_6" data-name="Layer 6"><path class="cls-1" d="M17.13,35.44V13.18A13.18,13.18,0,0,0,14,4.4C11.83,2,8.85.65,5.69,5.47a13.38,13.38,0,0,0-2.15,7.36V35.44s-3.61,3.77-1.23,9.71c1.06,2.64,5.29,4.94,7.59,4.94,5.11,0,7.23-2.12,8.82-5.3C20,42,18.89,37.4,17.13,35.44Z"/><line class="cls-2" x1="10.38" y1="19.79" x2="10.38" y2="37.79"/><circle class="cls-3" cx="10.38" cy="41.03" r="3.24"/><path class="cls-4" d="M27.72,5.09s-1.65-2.71-3.65,0c-1.53,2.35-.94,6.59,3.65,4.47"/><circle class="cls-5" cx="20.64" cy="1.88" r="1.38"/></g></g></svg>