<svg xmlns="http://www.w3.org/2000/svg" viewBox="0 0 52.71 31.08"><defs><style>.cls-1,.cls-3{fill:#fff;}.cls-2{fill:none;stroke:#78459b;stroke-width:2px;}.cls-2,.cls-3{stroke-linecap:round;stroke-linejoin:round;}.cls-3{stroke:#050606;stroke-width:3px;}</style></defs><g id="Layer_2" data-name="Layer 2"><g id="Layer_5" data-name="Layer 5"><path class="cls-1" d="M8.32,7.63a8.4,8.4,0,0,0-3.79-.26c-2.71.5-6.11,2.29-1.68,8.55,6.6,9.32,41,5.6,42,5s7.74-5.57,6.71-10.4S42.18,9,42.18,9,17.42,10.19,8.32,7.63Z"/><path class="cls-2" d="M9.3,8.3S3.49,5.68,1.42,9.59a5,5,0,0,0,.48,4.75c1.53,2.74,4,6.27,7.4,6.27"/><path class="cls-2" d="M43.41,8.61S49.22,6,51.29,9.9a5,5,0,0,1-.48,4.75c-1.53,2.74-4,6.27-7.4,6.27"/><path class="cls-3" d="M9.3,8.3s15.27-15.3,34,0c.23,11.29,0,13.17,0,13.17s-4.4,7.77-9.72,8c-4.46.2-12.48.07-15,0a3.32,3.32,0,0,1-1.48-.38C15.08,28,9.3,24.68,9.3,21Z"/><line class="cls-2" x1="18.43" y1="15.14" x2="33.74" y2="15.14"/><path class="cls-2" d="M18.43,11.47s7.67-4.28,15.48,0"/><path class="cls-2" d="M18.43,19.31s7.67,4.28,15.48,0"/></g></g></svg>