<svg xmlns="http://www.w3.org/2000/svg" viewBox="0 0 33.38 58.03"><defs><style>.cls-1,.cls-4,.cls-5,.cls-6{fill:none;}.cls-1{stroke:#6f3b96;}.cls-1,.cls-2,.cls-4,.cls-5{stroke-miterlimit:10;}.cls-1,.cls-2,.cls-3,.cls-6{stroke-width:3px;}.cls-2,.cls-3{fill:#fff;}.cls-2,.cls-3,.cls-6{stroke:#231f20;}.cls-3,.cls-5,.cls-6{stroke-linecap:round;}.cls-3,.cls-6{stroke-linejoin:round;}.cls-4{stroke:#8e8492;}.cls-4,.cls-5{stroke-width:2px;}.cls-5{stroke:#5d5e5e;}</style></defs><g id="Layer_2" data-name="Layer 2"><g id="Layer_6" data-name="Layer 6"><line class="cls-1" x1="16.82" y1="27.62" x2="16.82" y2="58.03"/><path class="cls-2" d="M10.26,1.5H23.39A4.45,4.45,0,0,1,27.81,5l3.32,17.48a4.37,4.37,0,0,1-4.42,5.1H6.94a4.37,4.37,0,0,1-4.42-5.1L5.84,5A4.45,4.45,0,0,1,10.26,1.5Z"/><path class="cls-3" d="M5.38,34.68s-4,2.58-3.88,4.58,3.18,2.83,3.18,2.83H28.56s2.94-.35,3.3-2.35S28,34.68,28,34.68Z"/><line class="cls-1" x1="7.68" y1="54.32" x2="7.68" y2="58.03"/><line class="cls-1" x1="26.33" y1="54.32" x2="26.33" y2="58.03"/><line class="cls-4" x1="6.18" y1="54.91" x2="9.18" y2="54.91"/><line class="cls-4" x1="15.32" y1="54.91" x2="18.32" y2="54.91"/><line class="cls-4" x1="24.83" y1="54.91" x2="27.83" y2="54.91"/><path class="cls-5" d="M5.74,51s-.88,1.35,1.41,2.29H26.33s2.79-.58,1.94-2"/><line class="cls-6" x1="27.86" y1="51.03" x2="6.09" y2="51.03"/></g></g></svg>